<svg xmlns="http://www.w3.org/2000/svg" viewBox="0 0 512 512" role="img" aria-labelledby="title">
  <title id="title">TeeJosh Diecast</title>
  <defs>
    <linearGradient id="bg" x1="86" y1="52" x2="426" y2="460" gradientUnits="userSpaceOnUse">
      <stop stop-color="#0f172a"/>
      <stop offset=".52" stop-color="#18181b"/>
      <stop offset="1" stop-color="#450a0a"/>
    </linearGradient>
    <linearGradient id="red" x1="93" y1="123" x2="423" y2="386" gradientUnits="userSpaceOnUse">
      <stop stop-color="#ef4444"/>
      <stop offset="1" stop-color="#b91c1c"/>
    </linearGradient>
  </defs>
  <rect width="512" height="512" rx="112" fill="url(#bg)"/>
  <path fill="#facc15" d="m84 358 205-271h69L153 358z" opacity=".95"/>
  <path fill="url(#red)" d="M79 385h354c22 0 40-18 40-40V205c0-19-13-35-31-39L265 126c-29-7-59 6-74 32L63 381c5 3 10 4 16 4Z"/>
  <path fill="#f8fafc" d="M115 310h282c14 0 27-9 31-23l12-38c4-14-6-28-21-28h-50l-39-52c-12-16-31-26-51-26h-91c-21 0-40 11-52 29l-35 49H79c-16 0-29 13-29 29v30c0 16 13 30 29 30h36Zm82-123h82c10 0 20 5 26 13l25 34H157l18-27c5-12 12-20 22-20Z"/>
  <path fill="#111827" d="M157 234h173l-25-34c-6-8-16-13-26-13h-82c-10 0-17 8-22 20z"/>
  <circle cx="149" cy="319" r="43" fill="#020617"/>
  <circle cx="149" cy="319" r="18" fill="#f8fafc"/>
  <circle cx="361" cy="319" r="43" fill="#020617"/>
  <circle cx="361" cy="319" r="18" fill="#f8fafc"/>
  <path fill="#f8fafc" d="M126 404h260v34H126z"/>
  <path fill="#18181b" d="M160 411h28v20h-28zm54 0h28v20h-28zm54 0h28v20h-28zm54 0h28v20h-28z"/>
  <path fill="#f8fafc" d="M155 89h47v22h-12v64h-23v-64h-12zm70 0h73v22h-25v64h-23v-64h-25z"/>
</svg>
