<svg xmlns="http://www.w3.org/2000/svg" viewBox="0 0 512 512" role="img" aria-labelledby="title">
  <title id="title">TeeJosh Diecast</title>
  <rect width="512" height="512" rx="112" fill="#dc2626"/>
  <path fill="#fef2f2" d="M132 310h248c16 0 30-11 34-27l9-39c3-13-7-25-20-25h-48l-34-47c-10-14-27-22-44-22h-83c-18 0-34 9-44 24l-30 45h-20c-18 0-32 14-32 32v27c0 18 14 32 32 32h32Zm63-119h82c8 0 16 4 21 11l22 31H160l17-25c4-10 9-17 18-17Z"/>
  <circle cx="161" cy="315" r="42" fill="#18181b"/>
  <circle cx="161" cy="315" r="18" fill="#fef2f2"/>
  <circle cx="353" cy="315" r="42" fill="#18181b"/>
  <circle cx="353" cy="315" r="18" fill="#fef2f2"/>
  <path fill="#fef2f2" d="M153 393h206v28H153z"/>
  <path fill="#fef2f2" d="M196 95h120v28H196z"/>
</svg>
